<mxfile host="drawio-plugin" modified="2024-05-22T15:02:38.153Z" agent="5.0 (Macintosh; Intel Mac OS X 10_15_7) AppleWebKit/537.36 (KHTML, like Gecko) Chrome/111.0.0.0 Safari/537.36" etag="y4yugArODeabiSS55i8p" version="20.5.3" type="embed"><diagram id="23iRSUPoRavnBvh4doch" name="Page-1"><mxGraphModel dx="1115" dy="577" grid="1" gridSize="10" guides="1" tooltips="1" connect="1" arrows="1" fold="1" page="1" pageScale="1" pageWidth="827" pageHeight="1169" math="0" shadow="0"><root><mxCell id="0"/><mxCell id="1" parent="0"/><mxCell id="9vagJ5xhhECEFdIfXfnk-19" value="" style="rounded=0;whiteSpace=wrap;html=1;fillColor=#f5f5f5;fontColor=#333333;strokeColor=#666666;" parent="1" vertex="1"><mxGeometry x="80" y="160" width="480" height="280" as="geometry"/></mxCell><mxCell id="9vagJ5xhhECEFdIfXfnk-3" style="edgeStyle=orthogonalEdgeStyle;rounded=0;orthogonalLoop=1;jettySize=auto;html=1;" parent="1" edge="1"><mxGeometry relative="1" as="geometry"><mxPoint x="232.5" y="250" as="sourcePoint"/><mxPoint x="402.5" y="250" as="targetPoint"/></mxGeometry></mxCell><mxCell id="9vagJ5xhhECEFdIfXfnk-1" value="" style="rounded=1;whiteSpace=wrap;html=1;fillColor=#fff2cc;strokeColor=#d6b656;" parent="1" vertex="1"><mxGeometry x="102.5" y="200" width="130" height="190" as="geometry"/></mxCell><mxCell id="9vagJ5xhhECEFdIfXfnk-4" style="edgeStyle=orthogonalEdgeStyle;rounded=0;orthogonalLoop=1;jettySize=auto;html=1;entryX=1;entryY=0.5;entryDx=0;entryDy=0;" parent="1" edge="1"><mxGeometry relative="1" as="geometry"><mxPoint x="402.5" y="350" as="sourcePoint"/><mxPoint x="232.5" y="350" as="targetPoint"/></mxGeometry></mxCell><mxCell id="9vagJ5xhhECEFdIfXfnk-2" value="" style="rounded=1;whiteSpace=wrap;html=1;fillColor=#d5e8d4;strokeColor=#82b366;" parent="1" vertex="1"><mxGeometry x="402.5" y="200" width="130" height="190" as="geometry"/></mxCell><mxCell id="9vagJ5xhhECEFdIfXfnk-6" value="Product" style="ellipse;whiteSpace=wrap;html=1;" parent="1" vertex="1"><mxGeometry x="122.5" y="220" width="60" height="40" as="geometry"/></mxCell><mxCell id="9vagJ5xhhECEFdIfXfnk-7" value="Sales" style="ellipse;whiteSpace=wrap;html=1;" parent="1" vertex="1"><mxGeometry x="167.5" y="260" width="60" height="40" as="geometry"/></mxCell><mxCell id="9vagJ5xhhECEFdIfXfnk-8" value="Customer Service" style="ellipse;whiteSpace=wrap;html=1;" parent="1" vertex="1"><mxGeometry x="122.5" y="310" width="75" height="50" as="geometry"/></mxCell><mxCell id="9vagJ5xhhECEFdIfXfnk-10" value="Order Service" style="rounded=0;whiteSpace=wrap;html=1;" parent="1" vertex="1"><mxGeometry x="420" y="230" width="95" height="40" as="geometry"/></mxCell><mxCell id="9vagJ5xhhECEFdIfXfnk-11" value="Product Service" style="rounded=0;whiteSpace=wrap;html=1;" parent="1" vertex="1"><mxGeometry x="420" y="280" width="95" height="40" as="geometry"/></mxCell><mxCell id="9vagJ5xhhECEFdIfXfnk-12" value="User Service&amp;nbsp;" style="rounded=0;whiteSpace=wrap;html=1;" parent="1" vertex="1"><mxGeometry x="420" y="330" width="95" height="40" as="geometry"/></mxCell><mxCell id="9vagJ5xhhECEFdIfXfnk-14" value="Business Domain&lt;div&gt;Problem Space&lt;br&gt;&lt;/div&gt;" style="text;html=1;align=center;verticalAlign=middle;whiteSpace=wrap;rounded=0;fontSize=14;" parent="1" vertex="1"><mxGeometry x="104.5" y="400" width="125" height="30" as="geometry"/></mxCell><mxCell id="9vagJ5xhhECEFdIfXfnk-15" value="Software&lt;div&gt;Solution Space&lt;/div&gt;" style="text;html=1;align=center;verticalAlign=middle;whiteSpace=wrap;rounded=0;fontSize=14;" parent="1" vertex="1"><mxGeometry x="414.5" y="400" width="100" height="30" as="geometry"/></mxCell><mxCell id="9vagJ5xhhECEFdIfXfnk-16" value="support" style="text;html=1;align=center;verticalAlign=middle;whiteSpace=wrap;rounded=0;fontSize=14;" parent="1" vertex="1"><mxGeometry x="272.5" y="318" width="100" height="30" as="geometry"/></mxCell><mxCell id="9vagJ5xhhECEFdIfXfnk-17" value="analyze" style="text;html=1;align=center;verticalAlign=middle;whiteSpace=wrap;rounded=0;fontSize=14;" parent="1" vertex="1"><mxGeometry x="272.5" y="220" width="100" height="30" as="geometry"/></mxCell><mxCell id="9vagJ5xhhECEFdIfXfnk-25" value="" style="rounded=0;whiteSpace=wrap;html=1;fillColor=#f5f5f5;fontColor=#333333;strokeColor=#666666;" parent="1" vertex="1"><mxGeometry x="580" y="160" width="480" height="280" as="geometry"/></mxCell><mxCell id="9vagJ5xhhECEFdIfXfnk-27" value="① Domain-Driven Design" style="text;html=1;align=center;verticalAlign=middle;whiteSpace=wrap;rounded=0;fontSize=14;fontStyle=1" parent="1" vertex="1"><mxGeometry x="230" y="160" width="180" height="30" as="geometry"/></mxCell><mxCell id="9vagJ5xhhECEFdIfXfnk-28" value="② Use Models to Express Business Entities" style="text;html=1;align=center;verticalAlign=middle;whiteSpace=wrap;rounded=0;fontSize=14;fontStyle=1" parent="1" vertex="1"><mxGeometry x="670" y="160" width="300" height="30" as="geometry"/></mxCell><mxCell id="9vagJ5xhhECEFdIfXfnk-36" style="edgeStyle=orthogonalEdgeStyle;rounded=0;orthogonalLoop=1;jettySize=auto;html=1;entryX=0;entryY=0.5;entryDx=0;entryDy=0;endArrow=none;endFill=0;startArrow=diamondThin;startFill=1;" parent="1" source="9vagJ5xhhECEFdIfXfnk-29" target="9vagJ5xhhECEFdIfXfnk-35" edge="1"><mxGeometry relative="1" as="geometry"><Array as="points"><mxPoint x="940" y="363"/></Array></mxGeometry></mxCell><mxCell id="9vagJ5xhhECEFdIfXfnk-37" value="1" style="edgeLabel;html=1;align=center;verticalAlign=middle;resizable=0;points=[];labelBackgroundColor=#F5F5F5;" parent="9vagJ5xhhECEFdIfXfnk-36" vertex="1" connectable="0"><mxGeometry x="-0.4561" y="-1" relative="1" as="geometry"><mxPoint as="offset"/></mxGeometry></mxCell><mxCell id="9vagJ5xhhECEFdIfXfnk-38" value="N" style="edgeLabel;html=1;align=center;verticalAlign=middle;resizable=0;points=[];labelBackgroundColor=#F5F5F5;" parent="9vagJ5xhhECEFdIfXfnk-36" vertex="1" connectable="0"><mxGeometry x="0.6842" y="3" relative="1" as="geometry"><mxPoint y="1" as="offset"/></mxGeometry></mxCell><mxCell id="9vagJ5xhhECEFdIfXfnk-39" style="edgeStyle=orthogonalEdgeStyle;rounded=0;orthogonalLoop=1;jettySize=auto;html=1;entryX=0.5;entryY=1;entryDx=0;entryDy=0;dashed=1;" parent="1" source="9vagJ5xhhECEFdIfXfnk-29" target="9vagJ5xhhECEFdIfXfnk-33" edge="1"><mxGeometry relative="1" as="geometry"/></mxCell><mxCell id="9vagJ5xhhECEFdIfXfnk-29" value="Order" style="rounded=1;whiteSpace=wrap;html=1;fillColor=#dae8fc;strokeColor=#6c8ebf;" parent="1" vertex="1"><mxGeometry x="910" y="296" width="80" height="30" as="geometry"/></mxCell><mxCell id="9vagJ5xhhECEFdIfXfnk-31" style="edgeStyle=orthogonalEdgeStyle;rounded=0;orthogonalLoop=1;jettySize=auto;html=1;" parent="1" source="9vagJ5xhhECEFdIfXfnk-30" target="9vagJ5xhhECEFdIfXfnk-29" edge="1"><mxGeometry relative="1" as="geometry"/></mxCell><mxCell id="9vagJ5xhhECEFdIfXfnk-30" value="" style="shape=image;verticalLabelPosition=bottom;labelBackgroundColor=default;verticalAlign=top;aspect=fixed;imageAspect=0;image=https://rupeezy.in/blogs/wp-content/uploads/2019/08/order.png;" parent="1" vertex="1"><mxGeometry x="800" y="282" width="54.93" height="58" as="geometry"/></mxCell><mxCell id="9vagJ5xhhECEFdIfXfnk-34" style="edgeStyle=orthogonalEdgeStyle;rounded=0;orthogonalLoop=1;jettySize=auto;html=1;" parent="1" source="9vagJ5xhhECEFdIfXfnk-32" target="9vagJ5xhhECEFdIfXfnk-33" edge="1"><mxGeometry relative="1" as="geometry"/></mxCell><mxCell id="9vagJ5xhhECEFdIfXfnk-32" value="" style="shape=image;verticalLabelPosition=bottom;labelBackgroundColor=default;verticalAlign=top;aspect=fixed;imageAspect=0;image=https://domf5oio6qrcr.cloudfront.net/medialibrary/8371/bigstock-Hamburger-And-French-Fries-263887.jpg;" parent="1" vertex="1"><mxGeometry x="802" y="220" width="53.33" height="40" as="geometry"/></mxCell><mxCell id="9vagJ5xhhECEFdIfXfnk-33" value="Product" style="rounded=1;whiteSpace=wrap;html=1;fillColor=#dae8fc;strokeColor=#6c8ebf;" parent="1" vertex="1"><mxGeometry x="910" y="225" width="80" height="30" as="geometry"/></mxCell><mxCell id="9vagJ5xhhECEFdIfXfnk-35" value="OrderItem" style="rounded=1;whiteSpace=wrap;html=1;fillColor=#dae8fc;strokeColor=#6c8ebf;" parent="1" vertex="1"><mxGeometry x="960" y="348" width="80" height="30" as="geometry"/></mxCell><mxCell id="9vagJ5xhhECEFdIfXfnk-40" value="" style="shape=image;verticalLabelPosition=bottom;labelBackgroundColor=default;verticalAlign=top;aspect=fixed;imageAspect=0;image=https://blogger.googleusercontent.com/img/b/R29vZ2xl/AVvXsEjn80sKWhS2xxwpZte1hCrjBOLWbS4TLz_WBw3mWX01DE0hrEqL-oq_POZTVObNKt2_ehCbD8vPeMjHQ5SD9d2T2vcOCeuTXaRzTZrm3N1oaUW5XqwATKcAlGA4Wf7QnvLcwXFwYuH5VKld/s226/wisdomchart.png;" parent="1" vertex="1"><mxGeometry x="600" y="250" width="138.5" height="80.89" as="geometry"/></mxCell><mxCell id="9vagJ5xhhECEFdIfXfnk-41" value="Model Thinking" style="text;html=1;align=center;verticalAlign=middle;whiteSpace=wrap;rounded=0;fontSize=14;" parent="1" vertex="1"><mxGeometry x="628.5" y="378" width="100" height="30" as="geometry"/></mxCell><mxCell id="9vagJ5xhhECEFdIfXfnk-42" value="Model in Code" style="text;html=1;align=center;verticalAlign=middle;whiteSpace=wrap;rounded=0;fontSize=14;" parent="1" vertex="1"><mxGeometry x="840" y="378" width="100" height="30" as="geometry"/></mxCell><mxCell id="9vagJ5xhhECEFdIfXfnk-43" value="" style="rounded=0;whiteSpace=wrap;html=1;fillColor=#f5f5f5;fontColor=#333333;strokeColor=#666666;" parent="1" vertex="1"><mxGeometry x="80" y="460" width="480" height="280" as="geometry"/></mxCell><mxCell id="9vagJ5xhhECEFdIfXfnk-58" value="③&amp;nbsp;Identify the Boundaries of the Model" style="text;html=1;align=center;verticalAlign=middle;whiteSpace=wrap;rounded=0;fontSize=14;fontStyle=1" parent="1" vertex="1"><mxGeometry x="200" y="460" width="270" height="30" as="geometry"/></mxCell><mxCell id="9vagJ5xhhECEFdIfXfnk-59" value="Product" style="rounded=1;whiteSpace=wrap;html=1;fillColor=#dae8fc;strokeColor=#6c8ebf;" parent="1" vertex="1"><mxGeometry x="316.5" y="650" width="60" height="30" as="geometry"/></mxCell><mxCell id="9vagJ5xhhECEFdIfXfnk-60" value="Order" style="rounded=1;whiteSpace=wrap;html=1;fillColor=#dae8fc;strokeColor=#6c8ebf;" parent="1" vertex="1"><mxGeometry x="442.5" y="630" width="60" height="30" as="geometry"/></mxCell><mxCell id="9vagJ5xhhECEFdIfXfnk-62" value="OrderItem" style="rounded=1;whiteSpace=wrap;html=1;fillColor=#dae8fc;strokeColor=#6c8ebf;" parent="1" vertex="1"><mxGeometry x="482.5" y="650" width="60" height="30" as="geometry"/></mxCell><mxCell id="9vagJ5xhhECEFdIfXfnk-63" value="User" style="rounded=1;whiteSpace=wrap;html=1;fillColor=#dae8fc;strokeColor=#6c8ebf;" parent="1" vertex="1"><mxGeometry x="417" y="535" width="60" height="30" as="geometry"/></mxCell><mxCell id="9vagJ5xhhECEFdIfXfnk-64" value="Payment" style="rounded=1;whiteSpace=wrap;html=1;fillColor=#dae8fc;strokeColor=#6c8ebf;" parent="1" vertex="1"><mxGeometry x="492.5" y="630" width="60" height="30" as="geometry"/></mxCell><mxCell id="9vagJ5xhhECEFdIfXfnk-65" value="Brand" style="rounded=1;whiteSpace=wrap;html=1;fillColor=#dae8fc;strokeColor=#6c8ebf;" parent="1" vertex="1"><mxGeometry x="292.5" y="630" width="60" height="30" as="geometry"/></mxCell><mxCell id="9vagJ5xhhECEFdIfXfnk-68" value="" style="ellipse;whiteSpace=wrap;html=1;fillColor=none;dashed=1;" parent="1" vertex="1"><mxGeometry x="387" y="505" width="120" height="75" as="geometry"/></mxCell><mxCell id="9vagJ5xhhECEFdIfXfnk-74" style="edgeStyle=orthogonalEdgeStyle;rounded=0;orthogonalLoop=1;jettySize=auto;html=1;entryX=0;entryY=0.5;entryDx=0;entryDy=0;" parent="1" source="9vagJ5xhhECEFdIfXfnk-69" target="9vagJ5xhhECEFdIfXfnk-68" edge="1"><mxGeometry relative="1" as="geometry"/></mxCell><mxCell id="9vagJ5xhhECEFdIfXfnk-69" value="" style="ellipse;whiteSpace=wrap;html=1;fillColor=none;dashed=1;" parent="1" vertex="1"><mxGeometry x="275" y="610" width="120" height="70" as="geometry"/></mxCell><mxCell id="9vagJ5xhhECEFdIfXfnk-70" value="" style="ellipse;whiteSpace=wrap;html=1;fillColor=none;dashed=1;" parent="1" vertex="1"><mxGeometry x="432.5" y="605" width="127.5" height="85" as="geometry"/></mxCell><mxCell id="9vagJ5xhhECEFdIfXfnk-76" style="edgeStyle=orthogonalEdgeStyle;rounded=0;orthogonalLoop=1;jettySize=auto;html=1;entryX=1;entryY=0.5;entryDx=0;entryDy=0;" parent="1" source="9vagJ5xhhECEFdIfXfnk-70" target="9vagJ5xhhECEFdIfXfnk-68" edge="1"><mxGeometry relative="1" as="geometry"><Array as="points"><mxPoint x="530" y="543"/></Array></mxGeometry></mxCell><mxCell id="9vagJ5xhhECEFdIfXfnk-85" style="edgeStyle=orthogonalEdgeStyle;rounded=0;orthogonalLoop=1;jettySize=auto;html=1;entryX=0.5;entryY=1;entryDx=0;entryDy=0;" parent="1" source="9vagJ5xhhECEFdIfXfnk-70" target="9vagJ5xhhECEFdIfXfnk-69" edge="1"><mxGeometry relative="1" as="geometry"><Array as="points"><mxPoint x="496" y="700"/><mxPoint x="335" y="700"/></Array></mxGeometry></mxCell><mxCell id="9vagJ5xhhECEFdIfXfnk-71" value="User Context" style="text;html=1;align=center;verticalAlign=middle;whiteSpace=wrap;rounded=0;fontSize=10;" parent="1" vertex="1"><mxGeometry x="402.5" y="505" width="90" height="30" as="geometry"/></mxCell><mxCell id="9vagJ5xhhECEFdIfXfnk-72" value="Product Context" style="text;html=1;align=center;verticalAlign=middle;whiteSpace=wrap;rounded=0;fontSize=10;" parent="1" vertex="1"><mxGeometry x="290" y="610" width="90" height="30" as="geometry"/></mxCell><mxCell id="9vagJ5xhhECEFdIfXfnk-73" value="Order Context" style="text;html=1;align=center;verticalAlign=middle;whiteSpace=wrap;rounded=0;fontSize=10;" parent="1" vertex="1"><mxGeometry x="447.5" y="605" width="90" height="30" as="geometry"/></mxCell><mxCell id="9vagJ5xhhECEFdIfXfnk-77" value="Order" style="rounded=1;whiteSpace=wrap;html=1;fillColor=#dae8fc;strokeColor=#6c8ebf;" parent="1" vertex="1"><mxGeometry x="97.5" y="555" width="60" height="30" as="geometry"/></mxCell><mxCell id="9vagJ5xhhECEFdIfXfnk-78" value="OrderItem" style="rounded=1;whiteSpace=wrap;html=1;fillColor=#dae8fc;strokeColor=#6c8ebf;" parent="1" vertex="1"><mxGeometry x="137.5" y="575" width="60" height="30" as="geometry"/></mxCell><mxCell id="9vagJ5xhhECEFdIfXfnk-79" value="Payment" style="rounded=1;whiteSpace=wrap;html=1;fillColor=#dae8fc;strokeColor=#6c8ebf;" parent="1" vertex="1"><mxGeometry x="167.5" y="555" width="60" height="30" as="geometry"/></mxCell><mxCell id="9vagJ5xhhECEFdIfXfnk-80" value="Product" style="rounded=1;whiteSpace=wrap;html=1;fillColor=#dae8fc;strokeColor=#6c8ebf;" parent="1" vertex="1"><mxGeometry x="137.5" y="630" width="60" height="30" as="geometry"/></mxCell><mxCell id="9vagJ5xhhECEFdIfXfnk-81" value="Brand" style="rounded=1;whiteSpace=wrap;html=1;fillColor=#dae8fc;strokeColor=#6c8ebf;" parent="1" vertex="1"><mxGeometry x="98.5" y="595" width="60" height="30" as="geometry"/></mxCell><mxCell id="9vagJ5xhhECEFdIfXfnk-83" value="User" style="rounded=1;whiteSpace=wrap;html=1;fillColor=#dae8fc;strokeColor=#6c8ebf;" parent="1" vertex="1"><mxGeometry x="130" y="525" width="60" height="30" as="geometry"/></mxCell><mxCell id="9vagJ5xhhECEFdIfXfnk-87" value="" style="shape=flexArrow;endArrow=classic;html=1;rounded=0;" parent="1" edge="1"><mxGeometry width="50" height="50" relative="1" as="geometry"><mxPoint x="212.5" y="599.58" as="sourcePoint"/><mxPoint x="292.5" y="599.58" as="targetPoint"/></mxGeometry></mxCell><mxCell id="9vagJ5xhhECEFdIfXfnk-88" value="" style="rounded=0;whiteSpace=wrap;html=1;fillColor=#f5f5f5;fontColor=#333333;strokeColor=#666666;" parent="1" vertex="1"><mxGeometry x="580" y="462" width="480" height="280" as="geometry"/></mxCell><mxCell id="9vagJ5xhhECEFdIfXfnk-89" value="④ Identify the Aggregation" style="text;html=1;align=center;verticalAlign=middle;whiteSpace=wrap;rounded=0;fontSize=14;fontStyle=1" parent="1" vertex="1"><mxGeometry x="722.5" y="462" width="200" height="30" as="geometry"/></mxCell><mxCell id="9vagJ5xhhECEFdIfXfnk-114" style="edgeStyle=orthogonalEdgeStyle;rounded=0;orthogonalLoop=1;jettySize=auto;html=1;entryX=0;entryY=0.5;entryDx=0;entryDy=0;endArrow=none;endFill=0;" parent="1" source="9vagJ5xhhECEFdIfXfnk-105" target="9vagJ5xhhECEFdIfXfnk-110" edge="1"><mxGeometry relative="1" as="geometry"><Array as="points"><mxPoint x="630" y="520"/></Array></mxGeometry></mxCell><mxCell id="9vagJ5xhhECEFdIfXfnk-115" style="edgeStyle=orthogonalEdgeStyle;rounded=0;orthogonalLoop=1;jettySize=auto;html=1;endArrow=none;endFill=0;" parent="1" source="9vagJ5xhhECEFdIfXfnk-105" target="9vagJ5xhhECEFdIfXfnk-106" edge="1"><mxGeometry relative="1" as="geometry"/></mxCell><mxCell id="9vagJ5xhhECEFdIfXfnk-116" style="edgeStyle=orthogonalEdgeStyle;rounded=0;orthogonalLoop=1;jettySize=auto;html=1;entryX=0.5;entryY=0;entryDx=0;entryDy=0;endArrow=none;endFill=0;" parent="1" source="9vagJ5xhhECEFdIfXfnk-105" target="9vagJ5xhhECEFdIfXfnk-108" edge="1"><mxGeometry relative="1" as="geometry"><Array as="points"><mxPoint x="620" y="590"/><mxPoint x="620" y="590"/></Array></mxGeometry></mxCell><mxCell id="9vagJ5xhhECEFdIfXfnk-105" value="Order" style="rounded=1;whiteSpace=wrap;html=1;fillColor=#dae8fc;strokeColor=#6c8ebf;" parent="1" vertex="1"><mxGeometry x="598.5" y="545" width="60" height="30" as="geometry"/></mxCell><mxCell id="9vagJ5xhhECEFdIfXfnk-106" value="OrderLine" style="rounded=1;whiteSpace=wrap;html=1;fillColor=#dae8fc;strokeColor=#6c8ebf;" parent="1" vertex="1"><mxGeometry x="690" y="565" width="60" height="30" as="geometry"/></mxCell><mxCell id="9vagJ5xhhECEFdIfXfnk-121" style="edgeStyle=orthogonalEdgeStyle;rounded=0;orthogonalLoop=1;jettySize=auto;html=1;endArrow=none;endFill=0;" parent="1" source="9vagJ5xhhECEFdIfXfnk-107" target="9vagJ5xhhECEFdIfXfnk-105" edge="1"><mxGeometry relative="1" as="geometry"><Array as="points"><mxPoint x="720" y="600"/><mxPoint x="629" y="600"/></Array></mxGeometry></mxCell><mxCell id="9vagJ5xhhECEFdIfXfnk-107" value="Payment" style="rounded=1;whiteSpace=wrap;html=1;fillColor=#dae8fc;strokeColor=#6c8ebf;" parent="1" vertex="1"><mxGeometry x="690" y="610" width="60" height="30" as="geometry"/></mxCell><mxCell id="9vagJ5xhhECEFdIfXfnk-117" style="edgeStyle=orthogonalEdgeStyle;rounded=0;orthogonalLoop=1;jettySize=auto;html=1;entryX=0;entryY=0.5;entryDx=0;entryDy=0;endArrow=none;endFill=0;" parent="1" source="9vagJ5xhhECEFdIfXfnk-108" target="9vagJ5xhhECEFdIfXfnk-109" edge="1"><mxGeometry relative="1" as="geometry"/></mxCell><mxCell id="9vagJ5xhhECEFdIfXfnk-108" value="Product" style="rounded=1;whiteSpace=wrap;html=1;fillColor=#dae8fc;strokeColor=#6c8ebf;" parent="1" vertex="1"><mxGeometry x="590" y="605" width="60" height="30" as="geometry"/></mxCell><mxCell id="9vagJ5xhhECEFdIfXfnk-109" value="Brand" style="rounded=1;whiteSpace=wrap;html=1;fillColor=#dae8fc;strokeColor=#6c8ebf;" parent="1" vertex="1"><mxGeometry x="639.25" y="650" width="60" height="30" as="geometry"/></mxCell><mxCell id="9vagJ5xhhECEFdIfXfnk-110" value="User" style="rounded=1;whiteSpace=wrap;html=1;fillColor=#dae8fc;strokeColor=#6c8ebf;" parent="1" vertex="1"><mxGeometry x="670" y="505" width="60" height="30" as="geometry"/></mxCell><mxCell id="9vagJ5xhhECEFdIfXfnk-119" value="" style="shape=flexArrow;endArrow=classic;html=1;rounded=0;" parent="1" edge="1"><mxGeometry width="50" height="50" relative="1" as="geometry"><mxPoint x="774.93" y="595" as="sourcePoint"/><mxPoint x="854.93" y="595" as="targetPoint"/></mxGeometry></mxCell><mxCell id="9vagJ5xhhECEFdIfXfnk-123" value="Product" style="rounded=1;whiteSpace=wrap;html=1;fillColor=#dae8fc;strokeColor=#6c8ebf;" parent="1" vertex="1"><mxGeometry x="990" y="505" width="60" height="30" as="geometry"/></mxCell><mxCell id="9vagJ5xhhECEFdIfXfnk-124" value="Brand" style="rounded=1;whiteSpace=wrap;html=1;fillColor=#dae8fc;strokeColor=#6c8ebf;" parent="1" vertex="1"><mxGeometry x="920" y="505" width="60" height="30" as="geometry"/></mxCell><mxCell id="9vagJ5xhhECEFdIfXfnk-132" style="edgeStyle=orthogonalEdgeStyle;rounded=0;orthogonalLoop=1;jettySize=auto;html=1;dashed=1;" parent="1" source="9vagJ5xhhECEFdIfXfnk-125" target="9vagJ5xhhECEFdIfXfnk-128" edge="1"><mxGeometry relative="1" as="geometry"/></mxCell><mxCell id="9vagJ5xhhECEFdIfXfnk-125" value="Order" style="rounded=1;whiteSpace=wrap;html=1;fillColor=#dae8fc;strokeColor=#6c8ebf;" parent="1" vertex="1"><mxGeometry x="900" y="580" width="60" height="30" as="geometry"/></mxCell><mxCell id="9vagJ5xhhECEFdIfXfnk-135" style="edgeStyle=orthogonalEdgeStyle;rounded=0;orthogonalLoop=1;jettySize=auto;html=1;dashed=1;" parent="1" source="9vagJ5xhhECEFdIfXfnk-127" target="9vagJ5xhhECEFdIfXfnk-125" edge="1"><mxGeometry relative="1" as="geometry"/></mxCell><mxCell id="9vagJ5xhhECEFdIfXfnk-127" value="Payment" style="rounded=1;whiteSpace=wrap;html=1;fillColor=#dae8fc;strokeColor=#6c8ebf;" parent="1" vertex="1"><mxGeometry x="900" y="650" width="60" height="30" as="geometry"/></mxCell><mxCell id="9vagJ5xhhECEFdIfXfnk-128" value="User" style="rounded=1;whiteSpace=wrap;html=1;fillColor=#dae8fc;strokeColor=#6c8ebf;" parent="1" vertex="1"><mxGeometry x="850" y="505" width="60" height="30" as="geometry"/></mxCell><mxCell id="9vagJ5xhhECEFdIfXfnk-131" style="edgeStyle=orthogonalEdgeStyle;rounded=0;orthogonalLoop=1;jettySize=auto;html=1;endArrow=diamondThin;endFill=1;" parent="1" source="9vagJ5xhhECEFdIfXfnk-129" target="9vagJ5xhhECEFdIfXfnk-125" edge="1"><mxGeometry relative="1" as="geometry"/></mxCell><mxCell id="9vagJ5xhhECEFdIfXfnk-136" value="" style="rounded=1;whiteSpace=wrap;html=1;strokeColor=#d6b656;fillColor=none;" parent="1" vertex="1"><mxGeometry x="894" y="565" width="160" height="60" as="geometry"/></mxCell><mxCell id="9vagJ5xhhECEFdIfXfnk-133" style="edgeStyle=orthogonalEdgeStyle;rounded=0;orthogonalLoop=1;jettySize=auto;html=1;dashed=1;" parent="1" source="9vagJ5xhhECEFdIfXfnk-129" target="9vagJ5xhhECEFdIfXfnk-123" edge="1"><mxGeometry relative="1" as="geometry"/></mxCell><mxCell id="9vagJ5xhhECEFdIfXfnk-134" style="edgeStyle=orthogonalEdgeStyle;rounded=0;orthogonalLoop=1;jettySize=auto;html=1;dashed=1;" parent="1" source="9vagJ5xhhECEFdIfXfnk-129" target="9vagJ5xhhECEFdIfXfnk-124" edge="1"><mxGeometry relative="1" as="geometry"><Array as="points"><mxPoint x="1010" y="570"/><mxPoint x="960" y="570"/></Array></mxGeometry></mxCell><mxCell id="9vagJ5xhhECEFdIfXfnk-129" value="OrderItem" style="rounded=1;whiteSpace=wrap;html=1;fillColor=#d5e8d4;strokeColor=#82b366;" parent="1" vertex="1"><mxGeometry x="990" y="580" width="60" height="30" as="geometry"/></mxCell><mxCell id="9vagJ5xhhECEFdIfXfnk-138" value="1.&amp;nbsp;Use aggregates to ensure business consistency.&lt;div&gt;2. Object decoupling.&lt;br&gt;&lt;/div&gt;" style="text;html=1;whiteSpace=wrap;overflow=hidden;rounded=0;" parent="1" vertex="1"><mxGeometry x="730" y="700" width="295.75" height="58" as="geometry"/></mxCell><mxCell id="9vagJ5xhhECEFdIfXfnk-139" value="" style="rounded=0;whiteSpace=wrap;html=1;fillColor=#f5f5f5;fontColor=#333333;strokeColor=#666666;" parent="1" vertex="1"><mxGeometry x="80" y="760" width="480" height="280" as="geometry"/></mxCell><mxCell id="9vagJ5xhhECEFdIfXfnk-140" value="⑤ Distinguish between entities and value objects" style="text;html=1;align=center;verticalAlign=middle;whiteSpace=wrap;rounded=0;fontSize=14;fontStyle=1" parent="1" vertex="1"><mxGeometry x="156.25" y="759" width="357.5" height="30" as="geometry"/></mxCell><mxCell id="9vagJ5xhhECEFdIfXfnk-169" value="Order" style="swimlane;fontStyle=1;align=center;verticalAlign=middle;childLayout=stackLayout;horizontal=1;startSize=29;horizontalStack=0;resizeParent=1;resizeParentMax=0;resizeLast=0;collapsible=0;marginBottom=0;html=1;whiteSpace=wrap;" parent="1" vertex="1"><mxGeometry x="104.5" y="790" width="140" height="129" as="geometry"/></mxCell><mxCell id="9vagJ5xhhECEFdIfXfnk-170" value="&amp;lt;&amp;lt;aggregate root&amp;gt;&amp;gt;" style="text;html=1;strokeColor=none;fillColor=none;align=center;verticalAlign=middle;spacingLeft=4;spacingRight=4;overflow=hidden;rotatable=0;points=[[0,0.5],[1,0.5]];portConstraint=eastwest;whiteSpace=wrap;" parent="9vagJ5xhhECEFdIfXfnk-169" vertex="1"><mxGeometry y="29" width="140" height="25" as="geometry"/></mxCell><mxCell id="9vagJ5xhhECEFdIfXfnk-171" value="id" style="text;html=1;strokeColor=none;fillColor=none;align=left;verticalAlign=middle;spacingLeft=4;spacingRight=4;overflow=hidden;rotatable=0;points=[[0,0.5],[1,0.5]];portConstraint=eastwest;whiteSpace=wrap;" parent="9vagJ5xhhECEFdIfXfnk-169" vertex="1"><mxGeometry y="54" width="140" height="25" as="geometry"/></mxCell><mxCell id="9vagJ5xhhECEFdIfXfnk-173" value="shipping_address" style="text;html=1;strokeColor=none;fillColor=none;align=left;verticalAlign=middle;spacingLeft=4;spacingRight=4;overflow=hidden;rotatable=0;points=[[0,0.5],[1,0.5]];portConstraint=eastwest;whiteSpace=wrap;" parent="9vagJ5xhhECEFdIfXfnk-169" vertex="1"><mxGeometry y="79" width="140" height="25" as="geometry"/></mxCell><mxCell id="9vagJ5xhhECEFdIfXfnk-172" value="lines" style="text;html=1;strokeColor=none;fillColor=none;align=left;verticalAlign=middle;spacingLeft=4;spacingRight=4;overflow=hidden;rotatable=0;points=[[0,0.5],[1,0.5]];portConstraint=eastwest;whiteSpace=wrap;" parent="9vagJ5xhhECEFdIfXfnk-169" vertex="1"><mxGeometry y="104" width="140" height="25" as="geometry"/></mxCell><mxCell id="9vagJ5xhhECEFdIfXfnk-179" style="edgeStyle=orthogonalEdgeStyle;rounded=0;orthogonalLoop=1;jettySize=auto;html=1;entryX=1;entryY=0.5;entryDx=0;entryDy=0;endArrow=diamondThin;endFill=1;" parent="1" source="9vagJ5xhhECEFdIfXfnk-174" target="9vagJ5xhhECEFdIfXfnk-171" edge="1"><mxGeometry relative="1" as="geometry"/></mxCell><mxCell id="9vagJ5xhhECEFdIfXfnk-174" value="OrderLine" style="swimlane;fontStyle=1;align=center;verticalAlign=middle;childLayout=stackLayout;horizontal=1;startSize=29;horizontalStack=0;resizeParent=1;resizeParentMax=0;resizeLast=0;collapsible=0;marginBottom=0;html=1;whiteSpace=wrap;" parent="1" vertex="1"><mxGeometry x="330" y="792" width="140" height="129" as="geometry"/></mxCell><mxCell id="9vagJ5xhhECEFdIfXfnk-175" value="&amp;lt;&amp;lt;entity&amp;gt;&amp;gt;" style="text;html=1;strokeColor=none;fillColor=none;align=center;verticalAlign=middle;spacingLeft=4;spacingRight=4;overflow=hidden;rotatable=0;points=[[0,0.5],[1,0.5]];portConstraint=eastwest;whiteSpace=wrap;" parent="9vagJ5xhhECEFdIfXfnk-174" vertex="1"><mxGeometry y="29" width="140" height="25" as="geometry"/></mxCell><mxCell id="9vagJ5xhhECEFdIfXfnk-176" value="id" style="text;html=1;strokeColor=none;fillColor=none;align=left;verticalAlign=middle;spacingLeft=4;spacingRight=4;overflow=hidden;rotatable=0;points=[[0,0.5],[1,0.5]];portConstraint=eastwest;whiteSpace=wrap;" parent="9vagJ5xhhECEFdIfXfnk-174" vertex="1"><mxGeometry y="54" width="140" height="25" as="geometry"/></mxCell><mxCell id="9vagJ5xhhECEFdIfXfnk-177" value="price" style="text;html=1;strokeColor=none;fillColor=none;align=left;verticalAlign=middle;spacingLeft=4;spacingRight=4;overflow=hidden;rotatable=0;points=[[0,0.5],[1,0.5]];portConstraint=eastwest;whiteSpace=wrap;" parent="9vagJ5xhhECEFdIfXfnk-174" vertex="1"><mxGeometry y="79" width="140" height="25" as="geometry"/></mxCell><mxCell id="9vagJ5xhhECEFdIfXfnk-178" value="product_id" style="text;html=1;strokeColor=none;fillColor=none;align=left;verticalAlign=middle;spacingLeft=4;spacingRight=4;overflow=hidden;rotatable=0;points=[[0,0.5],[1,0.5]];portConstraint=eastwest;whiteSpace=wrap;" parent="9vagJ5xhhECEFdIfXfnk-174" vertex="1"><mxGeometry y="104" width="140" height="25" as="geometry"/></mxCell><mxCell id="9vagJ5xhhECEFdIfXfnk-180" value="Address" style="swimlane;fontStyle=1;align=center;verticalAlign=middle;childLayout=stackLayout;horizontal=1;startSize=29;horizontalStack=0;resizeParent=1;resizeParentMax=0;resizeLast=0;collapsible=0;marginBottom=0;html=1;whiteSpace=wrap;" parent="1" vertex="1"><mxGeometry x="210" y="932" width="107.12" height="104" as="geometry"/></mxCell><mxCell id="9vagJ5xhhECEFdIfXfnk-181" value="&amp;lt;&amp;lt;value object&amp;gt;&amp;gt;" style="text;html=1;strokeColor=none;fillColor=none;align=left;verticalAlign=middle;spacingLeft=4;spacingRight=4;overflow=hidden;rotatable=0;points=[[0,0.5],[1,0.5]];portConstraint=eastwest;whiteSpace=wrap;" parent="9vagJ5xhhECEFdIfXfnk-180" vertex="1"><mxGeometry y="29" width="107.12" height="25" as="geometry"/></mxCell><mxCell id="9vagJ5xhhECEFdIfXfnk-183" value="region" style="text;html=1;strokeColor=none;fillColor=none;align=left;verticalAlign=middle;spacingLeft=4;spacingRight=4;overflow=hidden;rotatable=0;points=[[0,0.5],[1,0.5]];portConstraint=eastwest;whiteSpace=wrap;" parent="9vagJ5xhhECEFdIfXfnk-180" vertex="1"><mxGeometry y="54" width="107.12" height="25" as="geometry"/></mxCell><mxCell id="9vagJ5xhhECEFdIfXfnk-184" value="province" style="text;html=1;strokeColor=none;fillColor=none;align=left;verticalAlign=middle;spacingLeft=4;spacingRight=4;overflow=hidden;rotatable=0;points=[[0,0.5],[1,0.5]];portConstraint=eastwest;whiteSpace=wrap;" parent="9vagJ5xhhECEFdIfXfnk-180" vertex="1"><mxGeometry y="79" width="107.12" height="25" as="geometry"/></mxCell><mxCell id="9vagJ5xhhECEFdIfXfnk-185" style="edgeStyle=orthogonalEdgeStyle;rounded=0;orthogonalLoop=1;jettySize=auto;html=1;exitX=1;exitY=0.5;exitDx=0;exitDy=0;" parent="1" source="9vagJ5xhhECEFdIfXfnk-173" target="9vagJ5xhhECEFdIfXfnk-180" edge="1"><mxGeometry relative="1" as="geometry"/></mxCell><mxCell id="9vagJ5xhhECEFdIfXfnk-186" value="1. A&lt;span style=&quot;&quot;&gt;ggregate Root: Lead of Objects.&lt;/span&gt;&lt;div&gt;&lt;span style=&quot;&quot;&gt;2. Entity: Normal Object with ID.&lt;/span&gt;&lt;/div&gt;&lt;div style=&quot;&quot;&gt;3. Value Object: Object without ID.&lt;/div&gt;" style="text;html=1;whiteSpace=wrap;overflow=hidden;rounded=0;align=left;" parent="1" vertex="1"><mxGeometry x="345" y="955" width="192.5" height="58" as="geometry"/></mxCell><mxCell id="9vagJ5xhhECEFdIfXfnk-187" value="" style="rounded=0;whiteSpace=wrap;html=1;fillColor=#f5f5f5;fontColor=#333333;strokeColor=#666666;" parent="1" vertex="1"><mxGeometry x="580" y="760" width="480" height="280" as="geometry"/></mxCell><mxCell id="9vagJ5xhhECEFdIfXfnk-188" value="⑥ Manipulate Models" style="text;html=1;align=center;verticalAlign=middle;whiteSpace=wrap;rounded=0;fontSize=14;fontStyle=1" parent="1" vertex="1"><mxGeometry x="709.91" y="761" width="237.5" height="30" as="geometry"/></mxCell><mxCell id="9vagJ5xhhECEFdIfXfnk-223" value="Order" style="rounded=1;whiteSpace=wrap;html=1;fillColor=#dae8fc;strokeColor=#6c8ebf;" parent="1" vertex="1"><mxGeometry x="906" y="864" width="60" height="30" as="geometry"/></mxCell><mxCell id="9vagJ5xhhECEFdIfXfnk-226" value="" style="rounded=1;whiteSpace=wrap;html=1;strokeColor=#d6b656;fillColor=none;" parent="1" vertex="1"><mxGeometry x="880" y="859" width="160" height="60" as="geometry"/></mxCell><mxCell id="9vagJ5xhhECEFdIfXfnk-224" value="OrderItem" style="rounded=1;whiteSpace=wrap;html=1;fillColor=#dae8fc;strokeColor=#6c8ebf;" parent="1" vertex="1"><mxGeometry x="946" y="884" width="60" height="30" as="geometry"/></mxCell><mxCell id="9vagJ5xhhECEFdIfXfnk-232" style="rounded=0;orthogonalLoop=1;jettySize=auto;html=1;entryX=0;entryY=0.25;entryDx=0;entryDy=0;" parent="1" source="9vagJ5xhhECEFdIfXfnk-229" target="9vagJ5xhhECEFdIfXfnk-226" edge="1"><mxGeometry relative="1" as="geometry"/></mxCell><mxCell id="9vagJ5xhhECEFdIfXfnk-229" value="Factory" style="ellipse;whiteSpace=wrap;html=1;fontStyle=1" parent="1" vertex="1"><mxGeometry x="620" y="803" width="91.5" height="61" as="geometry"/></mxCell><mxCell id="9vagJ5xhhECEFdIfXfnk-233" style="rounded=0;orthogonalLoop=1;jettySize=auto;html=1;entryX=0;entryY=0.5;entryDx=0;entryDy=0;" parent="1" source="9vagJ5xhhECEFdIfXfnk-230" target="9vagJ5xhhECEFdIfXfnk-226" edge="1"><mxGeometry relative="1" as="geometry"/></mxCell><mxCell id="9vagJ5xhhECEFdIfXfnk-230" value="Service" style="ellipse;whiteSpace=wrap;html=1;fontStyle=1" parent="1" vertex="1"><mxGeometry x="620" y="880" width="91.5" height="61" as="geometry"/></mxCell><mxCell id="9vagJ5xhhECEFdIfXfnk-234" style="rounded=0;orthogonalLoop=1;jettySize=auto;html=1;entryX=0;entryY=0.75;entryDx=0;entryDy=0;" parent="1" source="9vagJ5xhhECEFdIfXfnk-231" target="9vagJ5xhhECEFdIfXfnk-226" edge="1"><mxGeometry relative="1" as="geometry"/></mxCell><mxCell id="9vagJ5xhhECEFdIfXfnk-231" value="&lt;span style=&quot;font-weight: 700;&quot;&gt;&lt;font style=&quot;font-size: 12px;&quot;&gt;Repository&lt;/font&gt;&lt;/span&gt;" style="ellipse;whiteSpace=wrap;html=1;" parent="1" vertex="1"><mxGeometry x="620" y="960" width="91.5" height="61" as="geometry"/></mxCell><mxCell id="9vagJ5xhhECEFdIfXfnk-235" value="Create Object" style="text;html=1;whiteSpace=wrap;overflow=hidden;rounded=0;" parent="1" vertex="1"><mxGeometry x="750" y="821.5" width="91.34" height="24" as="geometry"/></mxCell><mxCell id="9vagJ5xhhECEFdIfXfnk-236" value="Process Business Flow" style="text;html=1;whiteSpace=wrap;overflow=hidden;rounded=0;" parent="1" vertex="1"><mxGeometry x="722.5" y="870" width="131.5" height="24" as="geometry"/></mxCell><mxCell id="9vagJ5xhhECEFdIfXfnk-237" value="Persistence Object" style="text;html=1;whiteSpace=wrap;overflow=hidden;rounded=0;" parent="1" vertex="1"><mxGeometry x="738.5" y="960" width="131.5" height="24" as="geometry"/></mxCell><mxCell id="9vagJ5xhhECEFdIfXfnk-238" value="" style="rounded=0;whiteSpace=wrap;html=1;fillColor=#f5f5f5;fontColor=#333333;strokeColor=#666666;" parent="1" vertex="1"><mxGeometry x="82.5" y="1070" width="480" height="280" as="geometry"/></mxCell><mxCell id="9vagJ5xhhECEFdIfXfnk-239" value="⑦ Layering the architecture" style="text;html=1;align=center;verticalAlign=middle;whiteSpace=wrap;rounded=0;fontSize=14;fontStyle=1" parent="1" vertex="1"><mxGeometry x="246.5" y="1070" width="200" height="30" as="geometry"/></mxCell><mxCell id="9vagJ5xhhECEFdIfXfnk-260" value="Admin" style="shape=umlActor;verticalLabelPosition=bottom;verticalAlign=top;html=1;outlineConnect=0;" parent="1" vertex="1"><mxGeometry x="127.5" y="1128" width="30" height="60" as="geometry"/></mxCell><mxCell id="9vagJ5xhhECEFdIfXfnk-261" value="User" style="shape=umlActor;verticalLabelPosition=bottom;verticalAlign=top;html=1;outlineConnect=0;" parent="1" vertex="1"><mxGeometry x="122.5" y="1238" width="30" height="60" as="geometry"/></mxCell><mxCell id="2" style="edgeStyle=orthogonalEdgeStyle;rounded=0;orthogonalLoop=1;jettySize=auto;html=1;fontSize=12;" parent="1" source="9vagJ5xhhECEFdIfXfnk-262" target="9vagJ5xhhECEFdIfXfnk-270" edge="1"><mxGeometry relative="1" as="geometry"/></mxCell><mxCell id="9vagJ5xhhECEFdIfXfnk-262" value="JSP" style="rounded=0;whiteSpace=wrap;html=1;" parent="1" vertex="1"><mxGeometry x="197.5" y="1128" width="43" height="60" as="geometry"/></mxCell><mxCell id="6" style="edgeStyle=none;rounded=0;orthogonalLoop=1;jettySize=auto;html=1;fontSize=12;" parent="1" source="9vagJ5xhhECEFdIfXfnk-263" target="9vagJ5xhhECEFdIfXfnk-271" edge="1"><mxGeometry relative="1" as="geometry"/></mxCell><mxCell id="9vagJ5xhhECEFdIfXfnk-263" value="REST API&amp;nbsp;" style="rounded=0;whiteSpace=wrap;html=1;" parent="1" vertex="1"><mxGeometry x="197.5" y="1218" width="43" height="60" as="geometry"/></mxCell><mxCell id="7" style="edgeStyle=none;rounded=0;orthogonalLoop=1;jettySize=auto;html=1;fontSize=12;" parent="1" source="9vagJ5xhhECEFdIfXfnk-265" target="9vagJ5xhhECEFdIfXfnk-271" edge="1"><mxGeometry relative="1" as="geometry"/></mxCell><mxCell id="9vagJ5xhhECEFdIfXfnk-265" value="Web&lt;div&gt;Socket&lt;/div&gt;" style="rounded=0;whiteSpace=wrap;html=1;" parent="1" vertex="1"><mxGeometry x="197.5" y="1288" width="43" height="50" as="geometry"/></mxCell><mxCell id="9vagJ5xhhECEFdIfXfnk-266" value="Presentation" style="text;html=1;align=center;verticalAlign=middle;whiteSpace=wrap;rounded=0;fontSize=14;fontStyle=1" parent="1" vertex="1"><mxGeometry x="176.25" y="1100" width="85.5" height="30" as="geometry"/></mxCell><mxCell id="9vagJ5xhhECEFdIfXfnk-267" value="Application" style="text;html=1;align=center;verticalAlign=middle;whiteSpace=wrap;rounded=0;fontSize=14;fontStyle=1" parent="1" vertex="1"><mxGeometry x="272.5" y="1100" width="85.5" height="30" as="geometry"/></mxCell><mxCell id="9vagJ5xhhECEFdIfXfnk-268" value="Domain" style="text;html=1;align=center;verticalAlign=middle;whiteSpace=wrap;rounded=0;fontSize=14;fontStyle=1" parent="1" vertex="1"><mxGeometry x="371" y="1100" width="85.5" height="30" as="geometry"/></mxCell><mxCell id="9vagJ5xhhECEFdIfXfnk-269" value="Infrastucture" style="text;html=1;align=center;verticalAlign=middle;whiteSpace=wrap;rounded=0;fontSize=14;fontStyle=1" parent="1" vertex="1"><mxGeometry x="473.5" y="1100" width="85.5" height="30" as="geometry"/></mxCell><mxCell id="3" style="rounded=0;orthogonalLoop=1;jettySize=auto;html=1;entryX=0;entryY=0.25;entryDx=0;entryDy=0;fontSize=12;" parent="1" source="9vagJ5xhhECEFdIfXfnk-270" target="9vagJ5xhhECEFdIfXfnk-273" edge="1"><mxGeometry relative="1" as="geometry"/></mxCell><mxCell id="4" style="edgeStyle=none;rounded=0;orthogonalLoop=1;jettySize=auto;html=1;entryX=0;entryY=0.5;entryDx=0;entryDy=0;fontSize=12;" parent="1" source="9vagJ5xhhECEFdIfXfnk-270" target="9vagJ5xhhECEFdIfXfnk-276" edge="1"><mxGeometry relative="1" as="geometry"/></mxCell><mxCell id="9vagJ5xhhECEFdIfXfnk-270" value="Admin&lt;div&gt;console&lt;/div&gt;" style="rounded=0;whiteSpace=wrap;html=1;" parent="1" vertex="1"><mxGeometry x="270" y="1128" width="80" height="60" as="geometry"/></mxCell><mxCell id="8" style="edgeStyle=none;rounded=0;orthogonalLoop=1;jettySize=auto;html=1;entryX=0;entryY=0.75;entryDx=0;entryDy=0;fontSize=12;" parent="1" source="9vagJ5xhhECEFdIfXfnk-271" target="9vagJ5xhhECEFdIfXfnk-276" edge="1"><mxGeometry relative="1" as="geometry"/></mxCell><mxCell id="9" style="edgeStyle=none;rounded=0;orthogonalLoop=1;jettySize=auto;html=1;entryX=0;entryY=0.5;entryDx=0;entryDy=0;fontSize=12;" parent="1" source="9vagJ5xhhECEFdIfXfnk-271" target="9vagJ5xhhECEFdIfXfnk-278" edge="1"><mxGeometry relative="1" as="geometry"/></mxCell><mxCell id="9vagJ5xhhECEFdIfXfnk-271" value="Mall&lt;div&gt;App&lt;/div&gt;" style="rounded=0;whiteSpace=wrap;html=1;" parent="1" vertex="1"><mxGeometry x="270" y="1218" width="80" height="120" as="geometry"/></mxCell><mxCell id="9vagJ5xhhECEFdIfXfnk-273" value="User&lt;div&gt;Service&lt;/div&gt;" style="rounded=0;whiteSpace=wrap;html=1;" parent="1" vertex="1"><mxGeometry x="381" y="1128" width="65" height="40" as="geometry"/></mxCell><mxCell id="9vagJ5xhhECEFdIfXfnk-276" value="Product Service" style="rounded=0;whiteSpace=wrap;html=1;" parent="1" vertex="1"><mxGeometry x="381" y="1178" width="65" height="40" as="geometry"/></mxCell><mxCell id="9vagJ5xhhECEFdIfXfnk-277" value="Order Service" style="rounded=0;whiteSpace=wrap;html=1;" parent="1" vertex="1"><mxGeometry x="381" y="1228" width="65" height="40" as="geometry"/></mxCell><mxCell id="9vagJ5xhhECEFdIfXfnk-278" value="Payment Service" style="rounded=0;whiteSpace=wrap;html=1;" parent="1" vertex="1"><mxGeometry x="382.5" y="1278" width="65" height="40" as="geometry"/></mxCell><mxCell id="9vagJ5xhhECEFdIfXfnk-282" value="……" style="rounded=0;whiteSpace=wrap;html=1;" parent="1" vertex="1"><mxGeometry x="382.5" y="1325" width="65" height="20" as="geometry"/></mxCell><mxCell id="9vagJ5xhhECEFdIfXfnk-288" value="" style="rounded=0;whiteSpace=wrap;html=1;fillColor=#f5f5f5;fontColor=#333333;strokeColor=#666666;" parent="1" vertex="1"><mxGeometry x="580" y="1070" width="480" height="280" as="geometry"/></mxCell><mxCell id="9vagJ5xhhECEFdIfXfnk-289" value="⑧ Domain Modeling" style="text;html=1;align=center;verticalAlign=middle;whiteSpace=wrap;rounded=0;fontSize=14;fontStyle=1" parent="1" vertex="1"><mxGeometry x="675.88" y="1070" width="287.5" height="30" as="geometry"/></mxCell><mxCell id="17" value="DB Client" style="rounded=0;whiteSpace=wrap;html=1;" parent="1" vertex="1"><mxGeometry x="482.5" y="1130" width="67.5" height="60" as="geometry"/></mxCell><mxCell id="18" value="Redis Client" style="rounded=0;whiteSpace=wrap;html=1;" parent="1" vertex="1"><mxGeometry x="482.5" y="1203" width="67.5" height="60" as="geometry"/></mxCell><mxCell id="19" value="S3 Client" style="rounded=0;whiteSpace=wrap;html=1;" parent="1" vertex="1"><mxGeometry x="482.5" y="1278" width="67.5" height="60" as="geometry"/></mxCell><mxCell id="20" style="edgeStyle=orthogonalEdgeStyle;rounded=0;orthogonalLoop=1;jettySize=auto;html=1;fontSize=12;" parent="1" edge="1"><mxGeometry relative="1" as="geometry"><mxPoint x="449.7499999999999" y="1233" as="sourcePoint"/><mxPoint x="479.25" y="1233" as="targetPoint"/></mxGeometry></mxCell><mxCell id="26" style="rounded=0;orthogonalLoop=1;jettySize=auto;html=1;exitX=1;exitY=0.3333333333333333;exitDx=0;exitDy=0;exitPerimeter=0;entryX=0;entryY=0.5;entryDx=0;entryDy=0;" edge="1" parent="1" source="22" target="23"><mxGeometry relative="1" as="geometry"/></mxCell><mxCell id="27" style="edgeStyle=none;rounded=0;orthogonalLoop=1;jettySize=auto;html=1;" edge="1" parent="1" source="22" target="24"><mxGeometry relative="1" as="geometry"/></mxCell><mxCell id="28" style="edgeStyle=none;rounded=0;orthogonalLoop=1;jettySize=auto;html=1;entryX=0;entryY=0.5;entryDx=0;entryDy=0;" edge="1" parent="1" source="22" target="25"><mxGeometry relative="1" as="geometry"/></mxCell><mxCell id="22" value="Actor" style="shape=umlActor;verticalLabelPosition=bottom;verticalAlign=top;html=1;outlineConnect=0;" vertex="1" parent="1"><mxGeometry x="598.5" y="1169" width="30" height="60" as="geometry"/></mxCell><mxCell id="23" value="Search Product" style="ellipse;whiteSpace=wrap;html=1;" vertex="1" parent="1"><mxGeometry x="660.75" y="1130.5" width="70" height="35" as="geometry"/></mxCell><mxCell id="24" value="Create Order" style="ellipse;whiteSpace=wrap;html=1;" vertex="1" parent="1"><mxGeometry x="660" y="1181.5" width="70" height="35" as="geometry"/></mxCell><mxCell id="25" value="Make the Payment" style="ellipse;whiteSpace=wrap;html=1;" vertex="1" parent="1"><mxGeometry x="660.75" y="1233" width="70" height="35" as="geometry"/></mxCell><mxCell id="29" value="Order" style="rounded=1;whiteSpace=wrap;html=1;fillColor=#dae8fc;strokeColor=#6c8ebf;" vertex="1" parent="1"><mxGeometry x="906" y="1178" width="60" height="30" as="geometry"/></mxCell><mxCell id="30" value="" style="rounded=1;whiteSpace=wrap;html=1;strokeColor=#d6b656;fillColor=none;" vertex="1" parent="1"><mxGeometry x="880" y="1140" width="160" height="93" as="geometry"/></mxCell><mxCell id="31" value="OrderItem" style="rounded=1;whiteSpace=wrap;html=1;fillColor=#dae8fc;strokeColor=#6c8ebf;" vertex="1" parent="1"><mxGeometry x="946" y="1198" width="60" height="30" as="geometry"/></mxCell><mxCell id="36" value="" style="shape=flexArrow;endArrow=classic;html=1;rounded=0;" edge="1" parent="1"><mxGeometry width="50" height="50" relative="1" as="geometry"><mxPoint x="740" y="1203" as="sourcePoint"/><mxPoint x="870" y="1203" as="targetPoint"/></mxGeometry></mxCell><mxCell id="37" value="Use Cases" style="text;html=1;align=center;verticalAlign=middle;whiteSpace=wrap;rounded=0;fontSize=14;" vertex="1" parent="1"><mxGeometry x="619.25" y="1293" width="100" height="30" as="geometry"/></mxCell><mxCell id="38" value="Domain Model" style="text;html=1;align=center;verticalAlign=middle;whiteSpace=wrap;rounded=0;fontSize=14;" vertex="1" parent="1"><mxGeometry x="910" y="1293" width="100" height="30" as="geometry"/></mxCell><mxCell id="43" value="Event Storming" style="shape=process;whiteSpace=wrap;html=1;backgroundOutline=1;" vertex="1" parent="1"><mxGeometry x="760" y="1141.5" width="80" height="40" as="geometry"/></mxCell><mxCell id="44" value="Object Modeling in Color" style="shape=process;whiteSpace=wrap;html=1;backgroundOutline=1;" vertex="1" parent="1"><mxGeometry x="761.34" y="1229" width="80" height="40" as="geometry"/></mxCell><mxCell id="45" value="Product" style="rounded=1;whiteSpace=wrap;html=1;fillColor=#dae8fc;strokeColor=#6c8ebf;" vertex="1" parent="1"><mxGeometry x="946" y="1145" width="60" height="30" as="geometry"/></mxCell></root></mxGraphModel></diagram></mxfile>